<?xml version="1.0" standalone="no"?>
<!DOCTYPE svg PUBLIC "-//W3C//DTD SVG 20010904//EN"
 "http://www.w3.org/TR/2001/REC-SVG-20010904/DTD/svg10.dtd">
<svg version="1.0" xmlns="http://www.w3.org/2000/svg"
 width="600.000000pt" height="600.000000pt" viewBox="0 0 600.000000 600.000000"
 preserveAspectRatio="xMidYMid meet">
<metadata>
Created by potrace 1.16, written by Peter Selinger 2001-2019
</metadata>
<g transform="translate(0.000000,600.000000) scale(0.100000,-0.100000)"
fill="#000000" stroke="none">
<path d="M3742 5303 c-20 -14 -30 -15 -68 -5 -63 17 -85 15 -111 -10 -22 -21
-24 -21 -58 -5 -49 23 -104 22 -130 -3 -20 -19 -24 -19 -59 -5 -39 16 -47 15
-84 -18 -22 -20 -24 -20 -51 -4 -42 25 -76 21 -100 -10 -19 -23 -24 -25 -47
-15 -39 18 -61 14 -95 -16 -29 -26 -35 -28 -69 -18 -31 8 -41 7 -55 -7 -31
-31 -50 -37 -91 -26 -35 10 -40 9 -59 -15 -17 -22 -29 -26 -71 -26 -41 0 -55
-5 -73 -24 -19 -20 -28 -23 -48 -15 -31 12 -61 -4 -69 -36 -7 -29 -15 -30 -99
-9 -52 13 -68 14 -80 4 -8 -7 -15 -18 -15 -25 0 -8 -26 -17 -67 -23 -38 -6
-113 -21 -168 -32 -90 -20 -120 -21 -295 -16 -306 9 -434 -12 -461 -73 -9 -20
-25 -33 -49 -40 -30 -10 -496 -128 -650 -166 -186 -45 -290 -74 -322 -89 -46
-22 -102 -78 -124 -125 -23 -48 -21 -154 5 -238 11 -37 43 -149 70 -248 94
-343 121 -434 156 -540 13 -38 35 -113 49 -165 35 -136 82 -307 99 -365 8 -27
36 -122 62 -210 26 -88 53 -182 61 -210 9 -27 21 -72 29 -100 7 -27 20 -72 28
-100 9 -27 30 -99 47 -160 17 -60 38 -132 47 -160 8 -27 21 -72 28 -100 8 -27
20 -72 28 -100 27 -91 108 -368 152 -520 64 -221 75 -243 148 -296 35 -26 48
-29 111 -29 39 0 127 12 196 26 191 40 397 82 480 100 41 9 104 22 140 29 140
28 166 34 203 50 21 8 43 12 50 9 7 -4 99 -72 205 -151 380 -284 452 -319 592
-295 67 11 111 25 275 87 39 15 119 36 179 47 96 17 238 61 317 98 14 6 36 28
49 49 29 48 48 60 135 83 88 23 385 35 495 19 41 -6 136 -19 210 -30 226 -34
289 -25 375 50 76 67 89 101 165 434 11 50 27 119 36 155 8 36 18 81 23 100
13 48 37 147 61 255 25 111 48 209 61 255 5 19 18 76 29 125 11 50 24 106 29
125 6 19 17 67 25 105 18 82 52 233 66 290 5 22 19 81 30 130 11 50 25 108 30
130 5 22 14 63 20 90 6 28 17 77 25 110 20 90 59 262 90 395 7 30 21 89 30
130 9 41 23 102 31 135 8 33 21 92 29 130 8 39 22 99 30 135 37 157 57 287 52
342 -6 66 -37 137 -78 179 -27 27 -124 79 -149 79 -13 0 -107 28 -135 41 -22
9 -90 32 -145 47 -19 6 -80 24 -135 42 -55 18 -120 38 -145 45 -25 7 -90 27
-145 45 -182 58 -236 71 -269 65 -22 -5 -53 2 -100 19 -77 29 -98 31 -126 14
-16 -10 -28 -8 -74 15 -38 20 -62 26 -80 21 -17 -4 -44 1 -76 15 -43 19 -54
20 -94 9 -34 -9 -54 -9 -82 0 -26 8 -43 8 -56 1 -14 -8 -32 -6 -65 5 -52 18
-93 21 -93 7 0 -19 -32 -20 -63 -1 -38 24 -74 25 -105 3z m679 -340 c15 -47 6
-111 -19 -128 -20 -15 -27 -78 -53 -485 -6 -96 -17 -254 -24 -350 l-13 -175 4
300 c8 469 20 668 44 715 35 68 20 92 -28 48 l-25 -23 6 40 c4 22 7 48 7 58 0
10 5 15 10 12 18 -11 50 6 50 27 0 30 26 6 41 -39z m235 17 c11 0 25 5 31 11
18 18 53 -47 53 -98 0 -37 -3 -43 -25 -49 -29 -7 -34 -21 -34 -92 0 -29 -3
-61 -6 -71 -3 -11 -12 -71 -20 -135 -17 -129 -37 -284 -60 -451 -18 -133 -45
-346 -45 -359 0 -5 -2 -7 -5 -5 -4 5 9 168 41 514 8 88 20 234 27 325 14 169
26 213 82 293 8 12 15 27 15 34 0 18 -35 16 -54 -2 -21 -21 -22 -20 -18 30 2
25 0 45 -6 45 -5 0 -18 12 -27 28 l-18 27 25 -22 c13 -13 33 -23 44 -23z
m-190 19 c4 -7 23 -9 50 -5 39 5 46 3 60 -19 21 -32 12 -110 -15 -139 -16 -17
-22 -46 -31 -136 -6 -63 -17 -182 -25 -265 -8 -82 -21 -226 -30 -320 -30 -321
-45 -470 -59 -590 l-15 -120 5 130 c2 72 9 204 14 295 6 91 15 244 20 340 12
210 36 508 46 570 4 25 20 71 36 104 22 44 27 61 18 70 -8 8 -20 1 -46 -26
l-34 -38 0 61 c0 33 -5 69 -10 80 -11 20 3 28 16 8z m-281 -29 c12 0 26 5 33
12 25 25 59 -56 47 -112 -4 -16 -12 -30 -19 -30 -19 0 -35 -231 -43 -645 -5
-254 -9 -344 -15 -305 -5 30 -7 244 -6 475 3 383 5 423 21 457 10 20 17 49 15
65 l-3 28 -27 -29 -28 -29 0 47 c0 32 -4 46 -14 46 -7 0 -16 11 -18 25 -5 23
-4 23 16 10 11 -8 30 -15 41 -15z m-149 -20 c7 0 20 7 28 16 15 14 18 13 31
-20 17 -40 20 -122 5 -131 -6 -4 -10 -101 -10 -259 0 -139 -3 -356 -7 -482
l-8 -229 -7 145 c-38 789 -38 777 -2 835 6 11 15 31 19 44 6 21 5 23 -16 19
-13 -3 -32 -9 -41 -13 -14 -5 -18 -2 -18 14 0 11 -13 36 -30 54 -16 19 -30 37
-30 40 0 3 17 -4 37 -14 21 -10 43 -19 49 -19z m796 7 c19 17 20 16 39 -7 10
-14 19 -33 19 -42 0 -29 -20 -72 -41 -89 -16 -12 -23 -34 -30 -95 -5 -43 -13
-104 -19 -134 -6 -30 -17 -95 -25 -145 -9 -49 -22 -126 -30 -170 -7 -44 -20
-122 -29 -172 -40 -235 -48 -281 -56 -318 -8 -36 -9 -35 -5 15 3 30 11 105 19
165 8 61 22 166 31 235 38 292 45 337 54 375 6 22 11 65 11 96 0 69 23 139 56
169 32 31 30 44 -6 37 -25 -5 -30 -3 -30 12 0 10 -7 35 -16 56 l-15 37 27 -21
c26 -20 28 -20 46 -4z m-887 -49 c19 -65 19 -84 -1 -92 -17 -7 -16 -123 6
-606 6 -118 15 -368 20 -555 6 -187 12 -396 14 -465 4 -123 4 -124 -4 -30 -17
195 -57 878 -80 1372 -10 220 -10 229 10 272 24 54 27 91 5 82 -8 -3 -21 -9
-29 -12 -9 -3 -21 10 -35 37 -20 37 -20 41 -4 34 41 -17 63 -18 63 -1 0 34 20
14 35 -36z m1084 2 c14 -47 6 -87 -21 -101 -29 -16 -36 -37 -83 -279 -8 -41
-28 -140 -45 -220 -17 -80 -37 -181 -45 -224 -13 -68 -25 -110 -25 -80 0 13
26 183 44 289 8 50 22 131 30 180 41 248 47 271 66 297 46 62 70 102 70 114 0
18 -25 18 -54 -1 -23 -15 -24 -15 -28 13 -3 25 -1 28 17 24 12 -2 27 4 34 12
20 24 27 20 40 -24z m-1219 -39 c10 -38 4 -81 -12 -81 -13 0 -12 -24 42 -775
13 -187 9 -244 -6 -85 -7 74 -19 207 -28 295 -8 88 -22 239 -31 335 -9 96 -18
176 -20 178 -2 2 3 19 11 37 20 48 18 77 -3 74 -33 -3 -40 1 -51 27 -7 14 -16
23 -20 20 -4 -2 -13 3 -19 13 -10 16 -7 17 36 10 36 -5 48 -4 55 9 8 13 10 13
23 -3 7 -11 18 -35 23 -54z m1655 33 c44 -8 98 -19 120 -24 22 -5 66 -14 97
-19 32 -6 70 -17 86 -25 38 -20 91 -80 113 -130 16 -38 17 -49 4 -151 -13
-103 -25 -165 -59 -310 -8 -33 -22 -94 -31 -135 -9 -41 -23 -100 -30 -130 -7
-30 -20 -86 -29 -125 -20 -91 -34 -135 -35 -112 -1 21 -45 40 -72 32 -11 -4
-19 -2 -19 4 0 14 -64 31 -90 24 -13 -4 -23 -17 -27 -35 -5 -24 -10 -29 -28
-24 -26 7 -65 -25 -65 -53 0 -15 -7 -19 -32 -17 -29 1 -34 -3 -43 -31 -7 -24
-15 -33 -31 -33 -20 0 -21 3 -13 38 19 77 49 211 83 364 16 71 42 187 61 268
20 86 46 199 61 269 8 35 20 76 27 90 15 31 37 31 162 1 122 -28 188 -35 183
-19 -3 8 -20 17 -39 20 -19 4 -68 14 -109 23 -41 9 -104 22 -139 29 -63 11
-63 11 -87 -16 -13 -16 -24 -37 -24 -47 0 -11 -14 -77 -30 -147 -17 -70 -38
-159 -46 -198 -20 -89 -43 -190 -54 -235 -5 -19 -19 -80 -30 -135 -12 -55 -25
-113 -30 -130 -5 -16 -11 -42 -14 -57 -7 -32 -14 -33 -105 -13 l-68 16 12 67
c16 84 37 182 89 420 9 39 23 102 31 140 8 37 22 96 30 132 8 36 22 94 30 130
7 36 18 83 24 105 6 22 11 77 11 123 l0 83 38 -6 c20 -4 73 -13 117 -21z
m-275 -10 c6 -14 10 -47 10 -74 0 -38 -3 -48 -14 -44 -21 8 -51 -50 -76 -146
-12 -47 -35 -137 -51 -200 -17 -63 -36 -140 -44 -170 -8 -30 -21 -80 -29 -110
-15 -55 -15 -55 -10 -10 3 25 10 61 15 80 5 19 18 87 29 150 11 63 25 133 30
155 5 22 17 81 26 130 15 82 20 93 55 126 29 28 39 45 39 68 0 37 -22 42 -56
10 l-22 -20 -4 30 c-4 28 -2 31 21 31 14 0 33 5 41 10 23 15 30 12 40 -16z
m-1546 -13 c11 -20 15 -61 15 -142 0 -63 5 -161 11 -219 39 -380 70 -743 65
-749 -3 -2 -5 0 -5 5 0 12 -25 212 -74 594 -8 63 -20 160 -27 215 -6 55 -15
104 -19 108 -8 9 20 77 32 77 4 0 8 11 8 25 0 20 -5 25 -24 25 -15 0 -26 -7
-29 -17 -3 -10 -5 -3 -6 15 -1 25 -5 32 -21 32 -10 0 -24 9 -30 20 -10 18 -8
19 14 10 19 -7 30 -5 48 10 13 11 24 19 25 20 1 0 9 -13 17 -29z m-1086 -42
c53 -22 111 -46 127 -53 17 -7 60 -25 97 -41 125 -52 170 -127 223 -375 8 -36
21 -90 30 -120 18 -64 101 -379 120 -460 7 -30 34 -136 60 -235 25 -99 67
-259 91 -355 25 -96 59 -227 76 -290 16 -63 36 -140 43 -170 7 -30 27 -109 45
-175 18 -66 38 -145 45 -175 7 -30 68 -271 135 -535 67 -264 128 -507 136
-540 8 -33 22 -87 30 -120 49 -192 47 -199 -68 -254 -70 -33 -161 -61 -198
-61 -6 0 -10 25 -10 55 0 32 -12 91 -29 147 -17 51 -49 167 -71 258 -49 193
-166 652 -251 980 -17 63 -36 140 -44 170 -7 30 -34 136 -60 235 -26 99 -53
205 -60 235 -8 30 -21 80 -29 110 -23 85 -76 289 -91 350 -8 30 -27 107 -44
170 -16 63 -43 167 -60 230 -16 63 -50 194 -75 290 -80 314 -97 374 -109 390
-30 41 -64 73 -87 82 -31 13 -222 67 -392 112 -94 25 -273 78 -277 82 -3 3
105 4 240 4 159 -1 255 3 274 10 39 15 75 49 75 72 0 10 2 18 6 18 3 0 49 -18
102 -41z m963 -16 c26 -61 24 -87 -7 -108 -16 -10 -23 -22 -20 -31 3 -9 13
-70 22 -137 15 -117 32 -243 53 -392 6 -38 10 -83 9 -100 -1 -29 -9 20 -41
235 -33 220 -47 306 -55 340 -6 24 -5 51 4 80 8 25 14 53 14 63 0 25 -22 17
-37 -13 l-12 -24 -7 30 c-4 16 -18 44 -32 62 l-25 33 41 -7 c33 -5 43 -3 48
10 9 23 23 10 45 -41z m-149 -15 c27 -51 39 -118 22 -118 -12 0 -19 -26 -15
-52 0 -4 8 -49 16 -100 16 -90 27 -159 60 -358 20 -123 42 -265 55 -360 6 -41
13 -91 16 -110 12 -72 -7 -20 -22 61 -9 46 -22 116 -30 154 -18 91 -41 218
-60 328 -7 48 -21 126 -29 175 -8 48 -19 117 -25 153 -9 54 -8 73 4 110 19 55
20 59 1 59 -8 0 -25 -16 -38 -35 l-24 -36 -6 30 c-7 34 -55 111 -68 111 -14 0
-10 -45 6 -66 8 -10 15 -29 15 -41 0 -12 5 -25 10 -28 15 -9 12 -42 -5 -49
-21 -8 -19 -43 10 -181 14 -66 33 -156 41 -200 9 -44 22 -111 30 -150 23 -117
25 -145 3 -55 -11 47 -24 101 -29 120 -5 19 -18 80 -30 135 -12 55 -28 125
-36 156 -8 30 -14 67 -14 82 0 15 -9 32 -22 41 -12 9 -18 16 -13 16 15 0 35
50 35 87 0 40 -21 44 -40 8 -15 -28 -13 -30 -59 48 l-23 37 49 -2 c46 -3 48
-2 51 25 4 30 15 33 77 16 33 -10 41 -9 50 5 14 22 18 21 37 -16z m-1728 -19
c159 -2 146 -5 -159 -33 -93 -8 -206 -22 -250 -30 -74 -14 -107 -22 -265 -60
-30 -7 -89 -21 -130 -31 -41 -9 -100 -23 -130 -30 -30 -7 -89 -21 -130 -30
-41 -9 -102 -23 -135 -31 -33 -8 -87 -19 -120 -25 -89 -17 -156 -52 -179 -93
-28 -53 -21 -94 70 -401 9 -27 18 -59 21 -70 3 -11 16 -57 29 -102 13 -46 35
-120 48 -165 13 -46 26 -92 29 -103 3 -11 12 -42 21 -70 8 -27 29 -99 46 -160
17 -60 38 -130 45 -155 7 -25 27 -93 44 -152 17 -60 45 -156 62 -215 17 -60
37 -130 46 -158 8 -27 21 -72 28 -100 8 -27 20 -72 29 -100 8 -27 28 -98 45
-158 17 -59 45 -155 62 -215 17 -59 37 -127 44 -152 7 -25 27 -93 44 -152 17
-60 45 -156 62 -215 17 -60 37 -130 46 -158 16 -56 39 -139 54 -200 17 -67 52
-157 63 -161 6 -2 65 7 131 21 66 14 154 32 195 40 41 8 140 28 220 45 80 17
179 37 220 45 41 8 129 26 195 39 66 14 123 25 128 26 4 0 7 11 7 25 0 20 -64
269 -134 520 -23 82 -27 105 -17 105 5 0 11 -4 13 -8 6 -14 75 -52 95 -52 36
0 56 34 48 82 -8 47 -55 228 -105 403 -17 61 -34 119 -37 130 -136 508 -256
947 -265 969 -26 65 -85 111 -174 135 -37 10 -41 14 -51 58 -6 27 -25 102 -43
168 -17 66 -39 145 -47 175 -8 30 -20 78 -28 105 -7 28 -27 104 -45 170 -18
66 -39 145 -47 175 -8 30 -18 70 -23 88 -7 29 -43 68 -60 66 -3 0 -16 -3 -30
-6 -14 -4 -56 -13 -95 -22 -116 -25 -248 -56 -285 -65 -32 -9 -125 -30 -290
-67 -36 -8 -81 -19 -100 -24 -19 -5 -80 -19 -135 -30 -55 -12 -112 -26 -127
-30 -31 -10 -35 0 -19 43 15 38 62 66 143 82 40 8 102 21 138 29 108 24 350
77 425 93 39 8 97 21 130 28 281 61 372 76 545 92 107 9 215 17 240 17 25 -1
128 -26 230 -57 102 -31 210 -64 240 -73 30 -9 103 -31 162 -50 135 -45 152
-64 187 -219 5 -22 24 -94 41 -160 18 -66 38 -145 45 -175 12 -50 61 -240 135
-525 74 -285 123 -475 135 -525 7 -30 27 -109 45 -175 40 -154 117 -452 136
-530 35 -141 78 -309 179 -700 50 -194 77 -307 73 -309 -51 -25 -393 -156
-408 -156 -5 0 -10 17 -10 38 1 31 2 34 11 19 9 -15 18 -17 52 -12 61 10 124
29 190 59 l59 26 -7 42 c-7 42 -24 78 -36 78 -11 0 -19 -43 -13 -66 6 -25 -22
-44 -100 -69 -22 -7 -48 -16 -57 -19 -12 -5 -18 0 -23 18 -3 14 -20 32 -36 41
-28 14 -30 14 -42 -4 -6 -10 -17 -17 -25 -14 -7 3 -15 -1 -18 -9 -6 -14 7 -85
21 -121 5 -15 -2 -17 -57 -17 -35 0 -82 3 -104 7 l-40 7 30 7 c17 4 52 7 78 8
44 1 48 3 45 23 -3 22 -7 23 -70 21 -53 -2 -68 1 -68 12 0 25 -45 69 -63 62
-22 -8 -23 -80 -1 -101 22 -22 11 -20 -57 10 l-59 27 0 57 c0 52 -9 95 -57
270 -32 119 -58 237 -51 230 3 -3 16 -43 28 -90 12 -47 28 -107 35 -135 8 -27
26 -97 40 -154 26 -104 48 -157 80 -196 16 -19 16 -18 11 20 -6 42 -15 80 -82
350 -8 33 -21 85 -28 115 -8 30 -16 62 -20 70 -5 13 12 15 123 15 91 0 134 4
143 13 6 6 35 12 63 12 58 0 132 23 233 72 28 14 30 63 5 107 -26 45 -35 38
-31 -21 l3 -52 -85 -27 c-47 -15 -89 -28 -95 -28 -5 0 -17 14 -25 32 -17 36
-41 45 -61 24 -11 -12 -15 -10 -26 11 -7 13 -13 26 -13 27 0 1 21 3 48 3 48 0
127 23 220 64 56 25 62 37 41 97 -7 20 -18 31 -30 31 -17 0 -18 -5 -13 -38 6
-38 6 -39 -42 -59 -27 -11 -62 -23 -79 -27 -16 -4 -37 -9 -45 -11 -10 -3 -23
7 -33 25 -18 30 -67 44 -67 18 0 -11 -29 21 -30 33 0 4 21 9 47 13 49 6 178
48 226 72 22 12 27 21 27 53 0 53 -8 71 -32 71 -17 0 -19 -5 -13 -38 6 -37 5
-39 -32 -55 -44 -19 -156 -58 -157 -54 -18 58 -72 88 -83 46 -6 -22 -7 -22
-14 -3 -18 45 -11 59 29 60 36 1 154 37 235 72 40 18 45 33 26 92 -6 19 -17
60 -25 90 -44 174 -58 220 -70 220 -8 0 -13 25 -16 81 -2 61 -7 84 -20 93 -11
8 -18 30 -20 67 -3 46 -6 54 -23 54 -16 0 -19 -6 -17 -30 2 -29 -1 -31 -65
-54 -38 -13 -82 -26 -99 -28 -27 -4 -32 -1 -44 26 -14 34 -48 42 -70 16 -7 -8
-19 -15 -27 -15 -12 0 -14 -7 -9 -30 l6 -30 -78 0 c-76 0 -77 0 -90 30 -17 38
-48 56 -68 39 -17 -14 -18 -30 -2 -80 l11 -39 109 0 c94 0 110 2 115 18 7 18
18 -13 30 -85 5 -32 5 -33 -33 -33 -22 0 -56 -3 -76 -6 -36 -6 -38 -5 -44 24
-8 37 -36 65 -61 60 -23 -4 -28 -41 -13 -91 l11 -38 130 3 129 3 0 -52 c0 -61
-9 -66 -100 -61 -51 3 -54 5 -62 34 -8 31 -46 53 -68 39 -15 -9 -12 -48 6 -90
l16 -38 121 6 c70 4 123 11 125 17 2 5 14 7 26 4 25 -6 159 28 225 57 24 10
47 16 52 13 5 -3 9 -25 9 -49 0 -40 -3 -46 -32 -59 -41 -20 -127 -46 -150 -46
-10 0 -20 10 -24 25 -5 19 -13 25 -35 25 -18 0 -29 -5 -29 -14 0 -9 -8 -12
-26 -8 -25 4 -26 3 -20 -25 7 -30 6 -30 -40 -37 -88 -12 -97 -9 -119 32 -41
76 -89 43 -65 -44 12 -43 14 -44 54 -44 42 1 128 11 251 30 77 11 179 42 238
72 l37 18 0 -58 c0 -58 0 -58 -37 -74 -58 -25 -126 -48 -145 -48 -11 0 -18 8
-18 20 0 12 -12 26 -30 35 -34 18 -50 13 -50 -16 0 -10 -7 -19 -15 -19 -9 0
-15 -9 -15 -25 0 -25 -1 -25 -77 -25 l-78 0 -20 38 c-13 24 -28 38 -44 40 -23
4 -24 2 -18 -52 3 -30 8 -60 12 -66 8 -13 185 -13 218 -1 29 11 32 7 42 -63
l7 -46 -81 0 c-71 0 -81 2 -81 18 0 32 -29 62 -61 62 -30 0 -31 0 -24 -42 13
-91 13 -91 151 -86 l122 5 5 -46 c3 -25 3 -48 0 -51 -2 -3 -39 -5 -81 -5 l-76
0 -8 31 c-9 35 -30 48 -61 38 -16 -5 -18 -12 -14 -41 4 -19 13 -46 22 -59 14
-22 22 -24 98 -24 45 0 96 4 114 9 31 9 31 9 43 -40 7 -28 9 -53 5 -57 -3 -4
-40 -8 -81 -10 -69 -4 -74 -3 -74 16 0 22 -43 62 -67 62 -11 0 -14 -12 -13
-47 2 -66 2 -67 -15 -53 -9 8 -12 16 -6 19 5 4 -3 53 -20 121 -16 63 -29 122
-29 131 0 9 -7 22 -15 29 -8 7 -12 16 -10 21 6 9 -29 156 -52 214 -8 22 -16
51 -18 65 -2 14 -17 77 -34 140 -47 171 -91 340 -102 385 -5 22 -13 49 -18 60
-5 11 -12 40 -16 64 -6 46 -25 115 -51 184 -8 21 -16 52 -19 70 -4 33 -55 228
-73 282 -6 17 -25 91 -42 165 -17 74 -34 142 -38 150 -3 8 -11 40 -18 70 -22
97 -39 154 -52 178 -15 26 -49 29 -55 5 -3 -12 -5 -9 -6 8 -1 21 -7 28 -28 32
-16 3 -30 3 -32 1 -4 -4 32 -149 55 -222 8 -23 14 -53 14 -65 -1 -30 -26 40
-41 113 -22 109 -47 168 -92 215 -19 20 -19 20 -14 -15 3 -19 8 -48 11 -65 4
-20 3 -23 -2 -10 -14 37 -37 80 -48 92 -7 7 -14 18 -17 25 -2 7 -8 10 -12 6
-4 -4 -2 -28 5 -55 29 -124 39 -162 55 -218 9 -33 23 -84 31 -112 8 -29 20
-77 28 -105 8 -29 24 -91 37 -138 12 -47 33 -123 46 -170 13 -47 30 -112 38
-145 7 -33 25 -105 40 -160 15 -55 35 -136 46 -180 10 -44 25 -102 34 -130 9
-27 22 -75 30 -105 7 -30 20 -80 28 -110 19 -68 73 -276 92 -350 7 -30 30
-113 50 -185 20 -71 56 -206 81 -300 85 -327 115 -438 125 -456 5 -11 7 -19 4
-19 -4 0 -43 18 -89 40 -45 22 -86 40 -89 40 -4 0 -7 -12 -7 -28 0 -23 8 -31
52 -52 28 -13 92 -49 142 -79 346 -206 428 -214 796 -79 47 17 90 35 95 39 6
3 24 10 42 13 17 4 37 14 45 23 11 14 13 12 19 -13 4 -16 16 -60 27 -99 29
-101 37 -171 20 -181 -15 -10 -206 -82 -318 -121 -99 -34 -215 -37 -280 -7
-36 16 -511 361 -594 430 -17 15 -23 14 -73 -12 -51 -25 -204 -62 -413 -100
-47 -8 -150 -28 -230 -45 -317 -66 -383 -72 -450 -36 -64 33 -103 116 -159
337 -11 41 -31 116 -46 165 -15 50 -43 144 -62 210 -19 66 -41 143 -49 170
-14 55 -68 244 -90 317 -33 111 -46 156 -59 203 -7 28 -21 75 -30 105 -9 30
-22 78 -30 105 -7 28 -21 75 -30 105 -9 30 -22 78 -30 105 -7 28 -20 73 -28
100 -9 28 -30 100 -47 160 -17 61 -38 133 -46 160 -9 28 -21 73 -29 100 -7 28
-21 75 -30 105 -9 30 -22 78 -30 105 -7 28 -20 73 -28 100 -16 50 -52 176
-106 368 -16 56 -41 143 -56 192 -35 117 -32 187 11 247 39 55 91 80 254 122
186 47 459 118 680 176 181 48 187 49 304 44 66 -2 183 -5 260 -5z m1482 -188
c-5 -45 -2 -82 14 -148 11 -48 28 -119 36 -158 45 -201 73 -325 90 -395 8 -30
14 -61 13 -70 -1 -17 -24 67 -73 268 -8 31 -35 136 -60 232 -49 184 -58 257
-36 303 7 15 15 27 18 27 2 0 2 -27 -2 -59z m-1852 -83 c9 -12 16 -33 16 -45
0 -18 -6 -23 -26 -23 -15 0 -43 -4 -63 -10 -47 -13 -369 -89 -513 -122 -47
-10 -59 -17 -67 -38 -7 -20 -20 -29 -57 -39 -241 -61 -297 -71 -312 -55 -13
15 -42 82 -42 99 0 14 19 20 235 70 83 19 168 40 190 45 22 5 90 21 150 35
193 45 329 77 380 91 72 18 92 17 109 -8z m75 -269 c1 -12 -11 -18 -48 -22
-41 -5 -265 -56 -381 -87 -19 -5 -75 -18 -125 -30 -49 -11 -106 -25 -125 -30
-19 -6 -55 -15 -80 -21 -25 -5 -72 -16 -105 -24 -170 -41 -166 -41 -186 -14
-22 28 -45 96 -36 105 3 4 86 26 182 51 l177 44 19 -24 18 -24 123 28 c68 16
164 38 213 49 167 38 230 53 280 65 l50 13 12 -32 c6 -17 12 -38 12 -47z m49
-186 c7 -21 16 -56 21 -79 l8 -41 -46 -11 c-25 -6 -86 -21 -136 -32 -49 -11
-108 -25 -130 -30 -39 -9 -153 -36 -267 -62 -53 -11 -58 -15 -58 -39 0 -25 -5
-28 -67 -43 -153 -36 -308 -66 -319 -62 -12 5 -40 103 -32 112 6 5 201 53 323
79 44 9 94 21 110 25 17 5 73 18 125 29 52 12 176 39 274 61 99 22 183 40 188
40 4 0 8 7 8 15 0 19 -38 20 -110 1 -71 -17 -185 -43 -230 -51 -19 -4 -48 -11
-65 -15 -27 -8 -80 -20 -285 -66 -36 -8 -81 -19 -100 -24 -66 -17 -219 -50
-234 -50 -41 0 -77 132 -38 144 62 19 345 75 353 71 5 -4 9 -14 9 -24 0 -9 10
-27 21 -40 18 -19 28 -22 58 -16 30 6 430 101 556 133 22 5 43 10 46 11 3 1
11 -16 17 -36z m84 -318 c3 -33 48 -19 -342 -106 -102 -22 -257 -58 -345 -79
-250 -61 -332 -80 -338 -80 -16 0 -49 132 -36 145 2 2 85 20 183 40 99 20 183
38 188 41 4 3 13 -6 20 -20 12 -28 21 -31 64 -17 16 5 61 16 99 25 39 8 111
25 160 36 50 11 122 28 160 37 39 9 93 21 120 28 55 14 59 11 67 -50z m35
-173 c-10 -10 -17 -26 -17 -35 0 -10 -8 -17 -19 -17 -18 0 -145 -29 -416 -95
-95 -23 -196 -47 -350 -82 -38 -9 -95 -22 -125 -29 -30 -8 -62 -14 -71 -14
-18 0 -45 55 -55 111 -7 41 -27 33 211 90 72 17 138 33 147 35 13 4 23 -7 38
-42 24 -52 15 -51 145 -20 180 42 293 67 404 90 41 9 76 18 79 21 3 3 14 5 25
5 19 0 19 -1 4 -18z m-27 -114 l0 -33 -123 -29 c-67 -16 -144 -35 -172 -41
-27 -7 -86 -20 -130 -30 -135 -29 -130 -26 -130 -71 0 -44 13 -39 -190 -84
-55 -12 -113 -26 -129 -31 -56 -17 -76 -12 -92 26 -7 19 -14 50 -14 68 0 32 3
35 38 40 20 4 66 13 102 22 36 8 97 22 135 30 39 8 97 21 130 29 33 8 94 22
135 31 41 9 102 23 135 31 33 8 92 21 130 29 57 11 161 38 173 44 1 0 2 -14 2
-31z m249 -169 c29 -10 30 -12 14 -25 -17 -13 -17 -15 -1 -24 9 -6 26 -26 38
-45 33 -53 17 -65 -84 -65 -75 0 -84 2 -114 28 -47 40 -51 74 -14 112 26 25
38 30 80 30 27 0 63 -5 81 -11z m-215 -51 c-6 -46 -7 -46 -58 -57 -28 -6 -80
-18 -116 -26 -36 -8 -96 -22 -135 -31 -38 -9 -90 -20 -114 -25 -90 -18 -119
-29 -123 -47 -5 -18 -18 -22 -203 -62 -55 -12 -113 -26 -129 -31 -16 -5 -32
-9 -37 -9 -15 0 -51 87 -47 115 3 34 4 34 153 65 55 12 128 28 163 36 34 8 71
13 80 10 10 -3 71 5 137 19 66 14 187 39 270 56 82 16 151 32 154 34 9 10 11
-3 5 -47z m76 -200 c-1 -68 -5 -71 -126 -93 -43 -8 -133 -25 -199 -39 -66 -13
-151 -29 -190 -36 -38 -7 -140 -31 -225 -53 -227 -58 -216 -58 -240 -6 -28 62
-27 107 2 114 74 17 351 75 358 75 5 0 12 -9 15 -20 9 -29 44 -34 116 -15 103
27 421 92 457 94 27 1 32 -3 32 -21z m197 -1 c19 -10 11 -12 -52 -9 -61 3 -75
1 -75 -11 0 -15 46 -27 105 -27 20 0 42 -11 64 -31 29 -26 32 -33 23 -53 -17
-37 -97 -53 -160 -32 -65 22 -84 44 -80 92 2 31 10 43 37 61 38 26 102 30 138
10z m-137 -212 c0 -14 -4 -25 -8 -25 -26 0 -414 -78 -622 -125 -98 -23 -179
-40 -266 -58 l-70 -14 -17 47 c-30 85 -32 84 101 115 64 15 149 35 187 45 l70
17 12 -35 c17 -45 33 -64 50 -58 13 5 249 56 378 82 39 8 86 18 105 23 64 16
80 14 80 -14z m1193 -14 c3 -16 9 -40 12 -53 6 -23 2 -26 -52 -42 -32 -10 -68
-22 -81 -27 -40 -16 -57 -10 -90 33 -32 42 -30 57 9 58 22 0 152 41 164 51 17
17 33 9 38 -20z m-1007 -22 c70 -18 59 -24 -37 -21 -54 2 -89 0 -89 -6 0 -11
24 -17 109 -28 53 -6 65 -14 110 -69 12 -14 11 -19 -3 -33 -12 -13 -34 -17
-84 -16 -100 1 -152 34 -152 98 0 39 11 57 44 72 38 16 46 17 102 3z m-179
-60 l-11 -47 -61 -11 c-33 -6 -89 -17 -125 -25 -106 -23 -221 -47 -275 -58
-63 -12 -78 -25 -73 -59 4 -25 1 -28 -46 -38 -28 -6 -112 -24 -186 -40 l-135
-30 -17 22 c-23 30 -40 99 -27 112 5 5 36 15 67 21 31 6 91 19 132 29 41 9
102 23 135 30 33 7 94 20 135 30 41 9 102 23 135 30 195 41 350 76 354 80 9
10 9 -1 -2 -46z m1232 -90 c7 -27 12 -52 10 -53 -6 -6 -141 -53 -172 -60 -25
-6 -29 -3 -38 24 -10 26 -16 30 -50 30 -55 0 -53 26 4 39 23 6 80 24 127 39
47 16 90 30 96 31 5 0 16 -22 23 -50z m-1161 -95 c11 -19 4 -60 -12 -72 -10
-8 -65 -21 -241 -58 -38 -9 -86 -19 -105 -24 -19 -5 -64 -14 -100 -20 -35 -6
-77 -18 -93 -26 -16 -9 -59 -21 -95 -29 -37 -7 -101 -21 -142 -30 -152 -35
-150 -35 -165 -11 -14 21 -39 106 -33 111 2 1 59 15 128 30 69 15 154 34 189
41 48 11 67 11 78 3 20 -17 97 -6 348 50 121 27 223 50 227 50 4 1 11 -6 16
-15z m227 -84 c13 -14 25 -38 27 -55 l3 -30 -91 0 c-107 0 -134 14 -134 71 0
39 10 43 103 41 57 -2 71 -7 92 -27z m-165 -127 c0 -5 3 -19 7 -32 3 -14 2
-22 -3 -18 -5 3 -59 -6 -119 -19 -61 -13 -141 -31 -180 -39 -38 -8 -99 -22
-135 -30 -36 -8 -96 -22 -135 -30 -38 -8 -99 -22 -135 -30 -36 -8 -96 -22
-135 -30 -38 -8 -79 -17 -91 -20 -16 -5 -26 2 -47 32 -49 71 -36 97 58 117 39
9 119 27 179 41 60 13 112 22 117 20 4 -3 10 -19 14 -35 6 -27 11 -30 43 -30
20 1 55 5 77 10 22 4 74 15 115 24 41 8 118 25 170 36 192 43 200 44 200 33z
m3498 -60 c9 -7 29 -13 45 -13 24 0 28 -3 22 -17 -3 -10 -13 -49 -22 -88 -8
-38 -21 -97 -29 -130 -14 -59 -32 -141 -54 -240 -6 -27 -15 -68 -20 -90 -5
-22 -19 -80 -30 -130 -62 -275 -114 -407 -182 -458 -57 -42 -92 -48 -208 -36
-117 11 -319 44 -327 53 -6 5 7 78 32 186 8 36 22 99 31 140 9 41 22 102 29
135 7 33 21 96 30 140 10 44 24 108 31 142 8 35 20 91 28 125 7 35 16 70 19
78 3 8 13 50 23 94 l18 78 45 -5 c25 -4 63 -11 84 -17 43 -13 45 -24 23 -110
-7 -30 -23 -100 -36 -155 -12 -55 -25 -113 -30 -130 -4 -16 -16 -66 -25 -110
-10 -44 -26 -118 -37 -165 -10 -47 -23 -105 -28 -130 -6 -25 -17 -73 -25 -108
-8 -35 -15 -67 -15 -71 0 -19 73 -42 175 -56 61 -9 122 -18 138 -21 20 -5 27
-2 27 9 0 20 -9 22 -131 42 -142 22 -162 31 -155 64 3 14 11 53 16 86 6 33 15
74 19 90 5 17 17 66 26 110 23 105 53 238 67 298 12 47 12 47 54 47 45 0 54
10 54 57 0 21 4 24 23 19 43 -11 67 3 67 40 0 32 1 33 43 31 41 -2 42 -1 45
31 3 28 7 32 32 32 28 0 40 15 40 50 0 19 19 30 51 30 25 0 26 44 0 71 -12 13
-17 28 -13 42 6 21 7 21 10 -3 2 -14 11 -31 20 -37z m-3265 -1 c9 -8 17 -25
17 -37 0 -11 5 -26 11 -32 6 -6 9 -21 7 -34 -3 -21 -9 -24 -55 -27 -54 -3
-106 16 -130 47 -14 18 -17 70 -5 88 15 24 125 21 155 -5z m-210 -62 c-4 -3
-46 -15 -93 -24 -47 -10 -121 -26 -165 -35 -44 -10 -116 -26 -160 -35 -44 -10
-93 -23 -110 -30 -27 -12 -30 -17 -30 -61 l0 -48 -165 -33 c-91 -18 -177 -33
-192 -34 -35 0 -48 24 -48 88 l0 48 58 12 c31 7 86 18 122 26 36 8 99 22 140
31 41 9 107 23 145 31 167 37 194 43 265 58 41 9 111 24 155 34 78 17 80 17
83 -2 2 -10 0 -22 -5 -26z m71 -180 c16 -17 27 -32 25 -34 -4 -4 -420 -91
-514 -108 -67 -12 -85 -22 -85 -48 0 -18 2 -17 -269 -76 -35 -7 -71 -16 -80
-18 -20 -6 -71 64 -71 99 0 14 3 25 8 25 4 1 27 5 52 10 25 6 83 17 130 26
233 43 236 43 450 90 36 7 99 21 140 29 41 8 91 19 110 24 59 15 74 12 104
-19z m106 -201 c8 -19 9 -34 3 -40 -10 -10 -328 -77 -831 -175 -149 -29 -195
-35 -205 -25 -6 6 -12 37 -12 68 l0 57 65 12 c36 6 101 19 145 29 169 36 155
35 165 10 5 -13 13 -26 18 -29 8 -5 90 10 277 49 39 9 104 22 145 30 41 9 104
22 140 29 36 8 68 14 71 15 4 1 12 -13 19 -30z m50 -207 c0 -5 -28 -14 -62
-20 -193 -37 -580 -113 -623 -122 -92 -20 -309 -60 -322 -60 -14 0 -53 80 -53
109 0 16 64 32 313 76 l67 12 10 -37 c20 -76 18 -76 370 -5 36 7 105 21 155
30 49 9 92 18 94 21 8 7 51 4 51 -4z m20 -51 c0 -20 -16 -25 -175 -55 -213
-39 -421 -79 -433 -82 -20 -6 -26 -34 -15 -75 l10 -38 -41 -6 c-23 -4 -57 -11
-76 -15 -87 -22 -271 -53 -277 -46 -8 8 -22 107 -16 122 2 6 32 16 66 23 34 6
94 17 132 25 39 8 108 22 155 31 47 9 114 23 150 30 103 21 328 66 450 90 36
7 66 13 68 14 1 0 2 -8 2 -18z m60 -217 c0 -24 -8 -28 -80 -43 -25 -4 -237
-47 -472 -95 -235 -47 -439 -86 -452 -86 -28 0 -46 25 -46 63 0 20 6 25 37 30
21 3 75 13 121 21 45 9 117 23 160 31 42 8 115 21 162 30 47 9 119 23 160 30
41 8 113 21 160 30 204 40 224 42 238 26 6 -8 12 -25 12 -37z"/>
<path d="M1320 4646 c0 -13 6 -26 13 -29 6 -3 95 -39 197 -80 102 -41 246
-100 320 -130 74 -30 158 -58 187 -62 56 -7 123 8 123 28 0 7 4 6 10 -3 8 -12
14 -13 47 -1 107 38 241 92 257 104 24 18 11 50 -18 42 -48 -14 -165 -60 -231
-90 -61 -28 -78 -31 -135 -28 -58 4 -137 25 -165 43 -5 4 -32 15 -60 25 -27 9
-63 24 -80 31 -111 50 -438 174 -457 174 -5 0 -8 -11 -8 -24z"/>
<path d="M2503 4178 c3 -18 8 -40 12 -49 5 -13 -3 -20 -32 -29 -21 -7 -42 -16
-48 -20 -5 -5 -29 -13 -53 -20 -24 -6 -50 -14 -58 -17 -8 -3 -14 1 -14 10 0
23 -40 67 -61 67 -10 0 -19 -7 -19 -15 0 -9 -9 -15 -21 -15 -17 0 -20 -5 -17
-32 3 -33 3 -33 -54 -42 -75 -12 -103 0 -112 48 -5 28 -12 36 -29 36 -12 0
-28 -4 -36 -9 -19 -12 -5 -84 22 -109 20 -18 30 -19 132 -11 82 6 112 12 121
24 8 11 13 12 16 4 7 -20 105 -1 208 40 l95 38 -1 40 c0 38 -29 92 -48 93 -5
0 -6 -15 -3 -32z"/>
<path d="M2552 3999 c3 -40 2 -42 -37 -56 -22 -8 -68 -23 -103 -33 l-63 -18
-10 26 c-6 15 -16 30 -22 34 -17 11 -57 10 -57 -2 0 -5 -7 -10 -15 -10 -10 0
-15 -10 -15 -30 0 -34 -9 -38 -103 -42 l-57 -3 0 30 c0 36 -16 55 -45 55 -37
0 -43 -16 -28 -72 7 -29 16 -55 20 -59 5 -4 58 -4 118 0 61 5 113 7 116 5 3
-2 9 -25 13 -51 8 -57 1 -63 -77 -63 l-57 0 -17 40 c-14 32 -23 40 -44 40 -33
0 -39 -14 -30 -66 13 -68 11 -67 138 -61 63 3 120 10 128 17 7 6 25 8 39 4 22
-5 126 19 191 45 95 39 105 46 105 76 0 50 -11 75 -32 75 -17 0 -20 -5 -16
-36 4 -34 2 -37 -36 -54 -47 -21 -135 -50 -150 -50 -6 0 -18 13 -28 29 -13 23
-24 30 -55 33 -27 2 -39 8 -41 21 -3 13 3 17 23 17 35 0 130 25 223 57 82 29
93 46 68 107 -22 52 -48 49 -44 -5z"/>
<path d="M2635 3691 c6 -38 6 -39 -37 -56 -24 -9 -71 -25 -105 -35 l-62 -17
-6 24 c-3 13 -17 29 -31 35 -22 10 -28 9 -39 -5 -7 -9 -20 -17 -30 -17 -13 0
-16 -6 -13 -24 4 -21 0 -25 -31 -30 -83 -14 -131 -5 -131 24 0 24 -24 42 -52
38 -20 -3 -23 -8 -20 -38 5 -73 15 -80 116 -80 97 0 238 20 308 43 24 8 71 23
105 33 75 23 89 44 71 104 -9 28 -19 40 -31 40 -16 0 -18 -5 -12 -39z"/>
<path d="M2675 3560 c-4 -6 -4 -23 0 -38 6 -28 5 -29 -92 -60 -110 -36 -113
-36 -113 -21 0 11 -64 79 -74 79 -3 0 -6 -17 -9 -37 l-3 -38 -8 33 c-7 27 -12
31 -30 26 -11 -4 -22 -7 -23 -8 -1 -1 4 -20 12 -41 13 -40 13 -40 -13 -46 -15
-4 -48 -7 -74 -8 -40 -1 -48 2 -48 17 0 32 -29 62 -61 62 -34 0 -37 -20 -15
-85 14 -39 16 -40 63 -43 26 -1 79 1 117 5 l69 8 12 40 12 40 4 -35 c4 -35 4
-35 51 -33 25 2 90 18 144 38 54 19 100 33 102 30 2 -2 7 -24 9 -48 l5 -44
-53 -21 c-30 -12 -74 -26 -98 -32 -43 -11 -46 -11 -64 14 -32 44 -117 25 -104
-24 6 -25 -14 -31 -98 -27 -51 2 -60 5 -64 22 -6 35 -60 60 -76 36 -8 -15 12
-93 27 -103 14 -10 200 -4 234 7 20 6 21 4 20 -52 -1 -68 -5 -70 -103 -72 -59
-1 -63 0 -63 22 0 26 -33 67 -54 67 -21 0 -26 -38 -14 -93 l10 -50 121 7 c68
4 127 12 135 19 8 6 30 10 49 8 42 -3 229 55 253 79 9 9 22 14 30 12 10 -4 11
2 6 19 -4 13 -12 43 -18 67 -5 23 -14 42 -18 42 -11 0 -23 -59 -18 -85 2 -14
-6 -21 -32 -28 -19 -5 -39 -12 -45 -16 -18 -14 -116 -42 -125 -36 -6 4 -10 14
-10 24 0 22 -30 51 -53 51 -10 0 -17 -11 -20 -32 -3 -29 -4 -28 -5 9 -2 41 -1
42 36 48 48 8 186 51 229 72 27 12 33 21 33 47 0 17 -9 48 -20 69 -11 20 -20
53 -20 73 0 55 -27 93 -45 64z"/>
<path d="M2790 3090 c0 -35 -4 -42 -27 -50 -16 -6 -37 -15 -48 -20 -28 -13
-108 -40 -120 -40 -6 0 -16 14 -22 30 -12 33 -49 42 -60 14 -5 -13 -9 -12 -31
8 l-25 23 7 -52 7 -53 -79 0 -79 0 -6 29 c-6 31 -33 46 -61 35 -21 -8 -21 -62
0 -92 14 -20 24 -22 98 -22 148 0 320 39 456 104 27 13 35 41 25 92 -9 50 -35
45 -35 -6z"/>
<path d="M3132 1733 l3 -47 -88 -34 -89 -35 -30 37 c-29 36 -68 49 -68 22 0
-7 -9 -16 -20 -19 -17 -4 -19 -11 -14 -31 7 -31 -14 -39 -101 -34 -57 3 -60 4
-63 30 -4 34 -40 62 -59 46 -17 -14 -16 -88 1 -110 14 -19 94 -23 206 -10 47
6 55 10 60 32 5 21 7 22 13 8 10 -29 74 -22 182 19 116 44 128 58 113 126 -9
36 -16 47 -31 47 -16 0 -18 -6 -15 -47z"/>
<path d="M3177 1603 c-4 -3 -7 -19 -7 -34 0 -22 -8 -31 -42 -47 -24 -11 -66
-27 -95 -35 -50 -14 -51 -14 -62 10 -16 35 -81 57 -81 28 0 -8 -7 -15 -15 -15
-9 0 -15 -9 -15 -24 0 -30 -16 -36 -96 -36 -55 0 -64 3 -64 18 0 33 -30 63
-58 60 -24 -3 -27 -7 -24 -38 2 -19 11 -48 19 -63 l14 -29 112 5 c166 6 246
22 352 67 78 34 82 34 89 -1 14 -71 9 -85 -36 -102 -37 -14 -138 -47 -145 -47
-2 0 -3 7 -3 15 0 39 -79 76 -81 38 0 -10 -3 -13 -5 -7 -6 14 -44 6 -44 -8 0
-5 4 -18 10 -28 8 -16 4 -19 -34 -24 -23 -4 -62 -4 -85 0 -36 6 -45 12 -53 36
-8 24 -15 29 -37 26 -24 -3 -26 -6 -23 -48 2 -27 10 -50 20 -57 17 -14 84 -15
174 -4 52 6 57 5 64 -14 6 -16 8 -12 11 18 4 38 5 38 23 22 15 -14 29 -16 62
-11 46 8 137 35 153 46 6 4 27 13 48 19 31 11 37 17 37 41 0 16 -9 50 -21 77
-12 26 -22 67 -24 90 -4 55 -18 77 -38 56z"/>
</g>
</svg>
